<?xml version="1.0" encoding="UTF-8"?>
<svg width="70px" height="71px" viewBox="0 0 70 71" version="1.1" xmlns="http://www.w3.org/2000/svg" xmlns:xlink="http://www.w3.org/1999/xlink">
    <!-- Generator: Sketch 48.2 (47327) - http://www.bohemiancoding.com/sketch -->
    <title>hire-Illustration</title>
    <desc>Created with Sketch.</desc>
    <defs></defs>
    <g id="First-Time.-Bridge" stroke="none" stroke-width="1" fill="none" fill-rule="evenodd" transform="translate(-849.000000, -440.000000)" stroke-linejoin="round">
        <g id="hire-Illustration" transform="translate(850.375000, 441.835938)" stroke="#35AC45" stroke-width="1.80320007">
            <polyline id="Stroke-1" points="23.7823129 69 23.7823129 46.4181818 43.8095238 46.4181818 43.8095238 69"></polyline>
            <path d="M20.0272109,21.3272727 C20.0272109,24.7910727 17.2246531,27.6 13.7687075,27.6 C10.3127619,27.6 7.51020408,24.7910727 7.51020408,21.3272727 C7.51020408,17.8634727 10.3127619,15.0545455 13.7687075,15.0545455 C17.2246531,15.0545455 20.0272109,17.8634727 20.0272109,21.3272727 Z" id="Stroke-3"></path>
            <polyline id="Stroke-5" points="12.5170068 37.6363636 12.5170068 46.4181818 28.7891156 46.4181818 28.7891156 41.4 17.5238095 41.4 17.5238095 37.6363636"></polyline>
            <path d="M17.5238095,38.8909091 L17.5238095,32.6181818 L11.2653061,32.6181818 C8.50029932,32.6181818 6.2585034,34.8650727 6.2585034,37.6363636 L6.2585034,52.6909091 L18.7755102,52.6909091 L18.7755102,67.7454545 L23.7823129,67.7454545 L23.7823129,48.9272727 C23.7823129,47.5422545 22.6607891,46.4181818 21.2789116,46.4181818 L12.5170068,46.4181818" id="Stroke-7"></path>
            <path d="M47.5646259,21.3272727 C47.5646259,24.7910727 50.3671837,27.6 53.8231293,27.6 C57.2790748,27.6 60.0816327,24.7910727 60.0816327,21.3272727 C60.0816327,17.8634727 57.2790748,15.0545455 53.8231293,15.0545455 C50.3671837,15.0545455 47.5646259,17.8634727 47.5646259,21.3272727 Z" id="Stroke-9"></path>
            <polyline id="Stroke-11" points="55.0748299 37.6363636 55.0748299 46.4181818 38.8027211 46.4181818 38.8027211 41.4 50.0680272 41.4 50.0680272 37.6363636"></polyline>
            <path d="M50.0680272,38.8909091 L50.0680272,32.6181818 L56.3265306,32.6181818 C59.0915374,32.6181818 61.3333333,34.8650727 61.3333333,37.6363636 L61.3333333,52.6909091 L48.8163265,52.6909091 L48.8163265,67.7454545 L43.8095238,67.7454545 L43.8095238,48.9272727 C43.8095238,47.5422545 44.9310476,46.4181818 46.3129252,46.4181818 L55.0748299,46.4181818" id="Stroke-13"></path>
            <path d="M0,31.3636364 L0,47.6727273 C0,50.4440182 2.24179592,52.6909091 5.00680272,52.6909091 L7.51020408,52.6909091" id="Stroke-15"></path>
            <path d="M3.75510204,69 L3.75510204,52.6909091" id="Stroke-17"></path>
            <path d="M67.5918367,31.3636364 L67.5918367,47.6727273 C67.5918367,50.4440182 65.3500408,52.6909091 62.585034,52.6909091 L60.0816327,52.6909091" id="Stroke-19"></path>
            <path d="M63.8367347,69 L63.8367347,52.6909091" id="Stroke-21"></path>
            <path d="M37.5510204,0 L22.5306122,0 C21.1487347,0 20.0272109,1.12407273 20.0272109,2.50909091 L20.0272109,7.52727273 C20.0272109,8.91229091 21.1487347,10.0363636 22.5306122,10.0363636 L23.7823129,10.0363636 L23.7823129,15.0545455 L27.537415,10.0363636 L37.5510204,10.0363636 C38.932898,10.0363636 40.0544218,8.91229091 40.0544218,7.52727273 L40.0544218,2.50909091 C40.0544218,1.12407273 38.932898,0 37.5510204,0 Z" id="Stroke-23"></path>
            <path d="M23.7823129,5.01818182 L36.2993197,5.01818182" id="Stroke-25"></path>
            <path d="M32.5442177,31.3636364 L40.0544218,31.3636364" id="Stroke-27"></path>
            <path d="M43.8095238,28.8545455 C43.8095238,27.4695273 42.688,26.3454545 41.3061224,26.3454545 L31.292517,26.3454545 C29.9106395,26.3454545 28.7891156,27.4695273 28.7891156,28.8545455 L28.7891156,33.8727273 C28.7891156,35.2577455 29.9106395,36.3818182 31.292517,36.3818182 L41.3061224,36.3818182 C42.688,36.3818182 43.8095238,35.2577455 43.8095238,33.8727273 L43.8095238,32.6181818 L46.3129252,28.8545455 L43.8095238,28.8545455 Z" id="Stroke-29"></path>
            <path d="M27.537415,20.0727273 L30.0408163,20.0727273" id="Stroke-31"></path>
            <path d="M32.5442177,20.0727273 L35.047619,20.0727273" id="Stroke-33"></path>
            <path d="M37.5510204,20.0727273 L40.0544218,20.0727273" id="Stroke-35"></path>
        </g>
    </g>
</svg>