<?xml version="1.0" encoding="UTF-8"?>
<svg width="16px" height="15px" viewBox="0 0 16 15" version="1.1" xmlns="http://www.w3.org/2000/svg" xmlns:xlink="http://www.w3.org/1999/xlink">
    <!-- Generator: Sketch 48.2 (47327) - http://www.bohemiancoding.com/sketch -->
    <title>invision</title>
    <desc>Created with Sketch.</desc>
    <defs></defs>
    <g id="Log-in" stroke="none" stroke-width="1" fill="none" fill-rule="evenodd" transform="translate(-625.000000, -564.000000)">
        <g id="LinkedIn-Login-Button" transform="translate(610.000000, 548.000000)" fill="#FFFFFF">
            <g id="Group" transform="translate(14.826027, 15.001665)">
                <path d="M0.795601025,5.32317738 L3.75618945,5.32317738 L3.75618945,15.0508251 L0.795601025,15.0508251 L0.795601025,5.32317738 Z M2.10248935,4.47729497 L2.08134229,4.47729497 C0.977465743,4.47729497 0.26692452,3.63564197 0.26692452,2.70094191 C0.26692452,1.7493242 0.998612803,0.975341797 2.12363641,0.975341797 C3.2444306,0.975341797 3.93382476,1.77470067 3.95920123,2.72631838 C3.95920123,3.66101844 3.2444306,4.47729497 2.10248935,4.47729497 Z M16.0214844,15.0508251 L12.2150135,15.0508251 L12.2150135,10.12356 C12.2150135,8.81667172 11.7793841,7.92849519 10.5909193,7.92849519 C9.68582514,7.92849519 9.16137804,8.5290717 8.92453097,9.10850115 C8.83571332,9.31574234 8.8314839,9.60334236 8.8314839,9.89517179 L8.8314839,15.0508251 L5.55791898,15.0508251 C5.55791898,15.0508251 5.6002131,6.16905978 5.55791898,5.32317738 L8.8314839,5.32317738 L8.8314839,6.98533631 C9.25442511,6.32554803 10.269484,5.38238914 12.0120018,5.38238914 C14.1732313,5.38238914 16.0214844,6.76540688 16.0214844,9.75137178 L16.0214844,15.0508251 Z" id="invision"></path>
            </g>
        </g>
    </g>
</svg>