<?xml version="1.0" encoding="UTF-8"?>
<svg width="70px" height="72px" viewBox="0 0 70 72" version="1.1" xmlns="http://www.w3.org/2000/svg" xmlns:xlink="http://www.w3.org/1999/xlink">
    <!-- Generator: Sketch 48.2 (47327) - http://www.bohemiancoding.com/sketch -->
    <title>Search-Illustration</title>
    <desc>Created with Sketch.</desc>
    <defs></defs>
    <g id="05_02_First-Time.-Bridge" stroke="none" stroke-width="1" fill="none" fill-rule="evenodd" transform="translate(-369.000000, -439.000000)">
        <g id="Search-Illustration" transform="translate(370.000000, 440.835938)">
            <path d="M40.3199997,32.7599998 C40.3199997,42.5023197 32.4223198,50.3999996 22.6799998,50.3999996 C12.9376799,50.3999996 5.03999996,42.5023197 5.03999996,32.7599998 C5.03999996,23.0176798 12.9376799,15.1199999 22.6799998,15.1199999 C32.4223198,15.1199999 40.3199997,23.0176798 40.3199997,32.7599998 Z" id="Stroke-1" stroke="#2299F1" stroke-width="1.76399999" stroke-linejoin="round"></path>
            <polyline id="Stroke-3" stroke="#2299F1" stroke-width="1.76399999" stroke-linejoin="round" points="0 69.2999995 0 0 68.0399995 0 68.0399995 69.2999995"></polyline>
            <path d="M0,10.0799999 L68.0399995,10.0799999" id="Stroke-5" stroke="#2299F1" stroke-width="1.76399999" stroke-linejoin="round"></path>
            <path d="M32.7599998,47.8799997 L49.6175397,64.7375395 C50.1177596,65.2377595 50.7981596,65.5199995 51.5075396,65.5199995 C52.9829996,65.5199995 54.1799996,64.3229995 54.1799996,62.8475396 C54.1799996,62.1381596 53.8977596,61.4577596 53.3975396,60.9575396 L36.5399997,44.0999997" id="Stroke-7" stroke="#2299F1" stroke-width="1.76399999" stroke-linejoin="round"></path>
            <polygon id="Stroke-9" stroke="#2299F1" stroke-width="1.76399999" stroke-linejoin="round" points="12.5999999 40.3199997 32.7599998 40.3199997 32.7599998 25.1999998 12.5999999 25.1999998"></polygon>
            <polygon id="Stroke-11" stroke="#2299F1" stroke-width="1.76399999" stroke-linejoin="round" points="8.81999994 68.0399995 26.4599998 68.0399995 26.4599998 57.9599996 8.81999994 57.9599996"></polygon>
            <path d="M44.0999997,17.6399999 L61.7399996,17.6399999" id="Stroke-12" stroke="#2299F1" stroke-width="1.76399999" stroke-linejoin="round"></path>
            <path d="M44.0999997,22.6799998 L61.7399996,22.6799998" id="Stroke-13" stroke="#2299F1" stroke-width="1.76399999" stroke-linejoin="round"></path>
            <path d="M44.0999997,27.7199998 L61.7399996,27.7199998" id="Stroke-14" stroke="#2299F1" stroke-width="1.76399999" stroke-linejoin="round"></path>
            <path d="M44.0999997,37.7999997 L61.7399996,37.7999997" id="Stroke-15" stroke="#2299F1" stroke-width="1.76399999" stroke-linejoin="round"></path>
            <path d="M44.0999997,42.8399997 L61.7399996,42.8399997" id="Stroke-16" stroke="#2299F1" stroke-width="1.76399999" stroke-linejoin="round"></path>
            <path d="M46.6199997,47.8799997 L61.7399996,47.8799997" id="Stroke-17" stroke="#2299F1" stroke-width="1.76399999" stroke-linejoin="round"></path>
            <path d="M57.9599996,57.9599996 L61.7399996,57.9599996" id="Stroke-18" stroke="#2299F1" stroke-width="1.76399999" stroke-linejoin="round"></path>
            <path d="M57.9599996,62.9999996 L61.7399996,62.9999996" id="Stroke-19" stroke="#2299F1" stroke-width="1.76399999" stroke-linejoin="round"></path>
            <path d="M57.9599996,68.0399995 L61.7399996,68.0399995" id="Stroke-20" stroke="#2299F1" stroke-width="1.76399999" stroke-linejoin="round"></path>
            <path d="M6.29999996,5.03999996 C6.29999996,5.73551996 5.73551996,6.29999996 5.03999996,6.29999996 C4.34447997,6.29999996 3.77999997,5.73551996 3.77999997,5.03999996 C3.77999997,4.34447997 4.34447997,3.77999997 5.03999996,3.77999997 C5.73551996,3.77999997 6.29999996,4.34447997 6.29999996,5.03999996" id="Fill-21" fill="#2299F1"></path>
            <path d="M11.3399999,5.03999996 C11.3399999,5.73551996 10.7755199,6.29999996 10.0799999,6.29999996 C9.38447993,6.29999996 8.81999994,5.73551996 8.81999994,5.03999996 C8.81999994,4.34447997 9.38447993,3.77999997 10.0799999,3.77999997 C10.7755199,3.77999997 11.3399999,4.34447997 11.3399999,5.03999996" id="Fill-22" fill="#2299F1"></path>
            <path d="M16.3799999,5.03999996 C16.3799999,5.73551996 15.8155199,6.29999996 15.1199999,6.29999996 C14.4244799,6.29999996 13.8599999,5.73551996 13.8599999,5.03999996 C13.8599999,4.34447997 14.4244799,3.77999997 15.1199999,3.77999997 C15.8155199,3.77999997 16.3799999,4.34447997 16.3799999,5.03999996" id="Fill-23" fill="#2299F1"></path>
            <path d="M12.5999999,25.1999998 L12.5999999,30.2399998 C12.5999999,31.6310398 13.7289599,32.7599998 15.1199999,32.7599998 L30.2399998,32.7599998 C31.6310398,32.7599998 32.7599998,31.6310398 32.7599998,30.2399998 L32.7599998,25.1999998" id="Stroke-24" stroke="#2299F1" stroke-width="1.76399999" stroke-linejoin="round"></path>
            <path d="M18.8999999,25.1999998 L18.8999999,22.6799998 C18.8999999,21.2889599 20.0289599,20.1599999 21.4199998,20.1599999 L23.9399998,20.1599999 C25.3310398,20.1599999 26.4599998,21.2889599 26.4599998,22.6799998 L26.4599998,25.1999998" id="Stroke-25" stroke="#2299F1" stroke-width="1.76399999" stroke-linejoin="round"></path>
            <path d="M22.6799998,35.2799998 L22.6799998,32.7599998" id="Stroke-26" stroke="#2299F1" stroke-width="1.76399999" stroke-linejoin="round"></path>
            <path d="M13.8599999,57.9599996 L13.8599999,55.4399996 C13.8599999,54.7444796 14.4244799,54.1799996 15.1199999,54.1799996 L20.1599999,54.1799996 C20.8555199,54.1799996 21.4199998,54.7444796 21.4199998,55.4399996 L21.4199998,57.9599996" id="Stroke-27" stroke="#2299F1" stroke-width="1.76399999" stroke-linejoin="round"></path>
            <path d="M16.3799999,62.9999996 L18.8999999,62.9999996" id="Stroke-28" stroke="#2299F1" stroke-width="1.76399999" stroke-linejoin="round"></path>
        </g>
    </g>
</svg>