<?xml version="1.0" encoding="UTF-8"?>
<svg width="21px" height="20px" viewBox="0 0 21 20" version="1.1" xmlns="http://www.w3.org/2000/svg" xmlns:xlink="http://www.w3.org/1999/xlink">
    <!-- Generator: Sketch 48.2 (47327) - http://www.bohemiancoding.com/sketch -->
    <title>Skype-color</title>
    <desc>Created with Sketch.</desc>
    <defs></defs>
    <g id="Company-Profile.-Full-#2" stroke="none" stroke-width="1" fill="none" fill-rule="evenodd" transform="translate(-545.000000, -477.000000)">
        <g id="Group-2" transform="translate(513.000000, 106.000000)" fill="#00AEF3">
            <g id="Skype" transform="translate(32.950335, 371.000000)">
                <path d="M19.4249765,12.123109 C19.7930386,12.8534168 20,13.6753028 20,14.5458761 C20,17.5575262 17.5235183,20 14.4684854,20 C13.5218721,20 12.6328786,19.7646786 11.8532455,19.3519968 C11.2864534,19.4551672 10.7031985,19.5096505 10.1058325,19.5096505 C4.83772342,19.5096505 0.566792098,15.2993682 0.566792098,10.1037501 C0.566792098,9.45690605 0.633819379,8.82397264 0.759642521,8.21422361 C0.277516463,7.40277053 -2.27373675e-13,6.46148496 -2.27373675e-13,5.45528314 C-2.27373675e-13,2.44131455 2.47648166,0 5.5326905,0 C6.61335842,0 7.62229539,0.307192952 8.47483537,0.836955892 C9.00634995,0.746536834 9.55079962,0.699008868 10.1058325,0.699008868 C15.3751176,0.699008868 19.644873,4.91045036 19.644873,10.1037501 C19.644873,10.7969628 19.5696143,11.4716281 19.4249765,12.123109 Z M14.9988241,14.5992001 C15.440969,13.9813366 15.6667451,13.2753724 15.6667451,12.5010143 C15.6667451,11.8530111 15.5362183,11.2965861 15.2786924,10.8433316 C15.0211665,10.3935547 14.6601599,10.0179679 14.203904,9.72468556 C13.7547037,9.43604011 13.2067262,9.19028575 12.570555,8.99090013 C11.9437912,8.79267374 11.2347131,8.60835797 10.4621355,8.44606735 C9.85183443,8.30696111 9.40733772,8.19915377 9.14275635,8.12612299 C8.88405456,8.05656987 8.62535278,7.95687706 8.37488241,7.83284067 C8.13264346,7.71228192 7.94096896,7.57085724 7.80691439,7.40624819 C7.6775635,7.25323132 7.61523989,7.07355243 7.61523989,6.86025619 C7.61523989,6.51017214 7.80926623,6.21457138 8.20672625,5.95838405 C8.61947319,5.69060453 9.17685795,5.55613516 9.85888993,5.55613516 C10.59619,5.55613516 11.1312324,5.67669391 11.4522578,5.9178114 C11.7826905,6.16588419 12.0707902,6.51712746 12.3083255,6.96226743 C12.514111,7.31003304 12.6999059,7.55346896 12.8786453,7.70996348 C13.0691439,7.87689098 13.3466604,7.96267316 13.6994356,7.96267316 C14.0874882,7.96267316 14.417921,7.82704457 14.6789746,7.55810584 C14.9388523,7.29264476 15.070555,6.98661102 15.070555,6.65043761 C15.070555,6.30151278 14.9694262,5.94099577 14.7718721,5.57816032 C14.5766698,5.21880253 14.2638758,4.87451458 13.8440734,4.54993334 C13.4277987,4.22882977 12.8986359,3.96916478 12.2695202,3.77673448 C11.6439323,3.58430418 10.894873,3.48692981 10.0435089,3.48692981 C8.97695202,3.48692981 8.03621825,3.63299136 7.24482596,3.92163682 C6.44167451,4.21260071 5.81843838,4.64151162 5.39275635,5.18982206 C4.96237065,5.74161015 4.74482596,6.38265809 4.74482596,7.09209992 C4.74482596,7.83747754 4.95296331,8.47157016 5.3621825,8.97814873 C5.76552211,9.47545354 6.31702728,9.87306555 7.0014111,10.1593926 C7.66933208,10.4410827 8.51011289,10.6879963 9.5014111,10.8966557 C10.2293039,11.0473541 10.8172625,11.1922564 11.2511759,11.3244073 C11.6662747,11.4542398 12.0084666,11.6397148 12.2695202,11.8785139 C12.5164628,12.1080392 12.6375823,12.4001623 12.6375823,12.7699531 C12.6375823,13.2405958 12.4071025,13.6254564 11.9308561,13.9442416 C11.4452023,14.2711413 10.7984478,14.4380687 10.0094073,14.4380687 C9.43673565,14.4380687 8.96989652,14.354605 8.62417686,14.1946328 C8.28080903,14.0335014 8.01152399,13.8283197 7.82337723,13.5825654 C7.62935089,13.3310149 7.44590781,13.0087521 7.27657573,12.6262099 C7.12488241,12.2772851 6.93673565,12.0048687 6.71683913,11.8205529 C6.48753528,11.6292819 6.20413923,11.5330667 5.87723424,11.5330667 C5.47742239,11.5330667 5.14228598,11.6547847 4.88123236,11.8982206 C4.6178269,12.1428157 4.48377234,12.4418942 4.48377234,12.7850229 C4.48377234,13.3379702 4.68838194,13.909465 5.09407338,14.4844375 C5.49506115,15.0570915 6.02304798,15.5184606 6.66392286,15.8592709 C7.5611477,16.3287544 8.71001881,16.5663943 10.0799624,16.5663943 C11.221778,16.5663943 12.2236595,16.3913522 13.0597366,16.0482235 C13.906397,15.7027763 14.5578551,15.2159045 14.9988241,14.5992001 Z"></path>
            </g>
        </g>
    </g>
</svg>